<?xml version="1.0" encoding="utf-8"?>
<svg viewBox="0 0 512 512" xmlns="http://www.w3.org/2000/svg">
  <g/>
  <path d="M256,196.085c-4.512,0-8.17,3.658-8.17,8.17v87.149c0,13.516,10.996,24.511,24.511,24.511 c13.515,0,24.511-10.995,24.511-24.511v-87.149c0-22.526-18.325-40.851-40.851-40.851c-22.526,0-40.851,18.325-40.851,40.851v87.149 c0,31.536,25.656,57.191,57.191,57.191c31.535,0,57.191-25.656,57.191-57.191v-54.468c0-4.512-3.657-8.17-8.17-8.17 c-4.513,0-8.17,3.658-8.17,8.17v54.468c0,22.526-18.325,40.851-40.851,40.851s-40.851-18.325-40.851-40.851v-87.149 c0-13.516,10.995-24.511,24.511-24.511c13.515,0,24.511,10.995,24.511,24.511v87.149c0,4.506-3.665,8.17-8.17,8.17 c-4.506,0-8.17-3.665-8.17-8.17v-87.149C264.17,199.743,260.513,196.085,256,196.085z" style="fill: rgb(252, 186, 25);"/>
  <path d="M256,130.723c-40.546,0-73.532,32.986-73.532,73.532v87.149c0,49.556,40.316,89.872,89.872,89.872 c49.555,0,89.872-40.316,89.872-89.872v-87.149c0-58.566-47.647-106.213-106.213-106.213S149.787,145.689,149.787,204.26 l0.034,57.199c0.002,4.511,3.659,8.166,8.17,8.166c4.516-0.002,8.172-3.662,8.17-8.175l-0.034-57.195 c0-49.556,40.316-89.872,89.872-89.872c49.555,0,89.872,40.316,89.872,89.872v87.149c0,40.546-32.986,73.532-73.532,73.532 s-73.532-32.986-73.532-73.532v-87.149c0-31.536,25.656-57.191,57.191-57.191c31.535,0,57.191,25.656,57.191,57.191 c0,4.512,3.657,8.17,8.17,8.17c4.513,0,8.17-3.658,8.17-8.17C329.532,163.709,296.546,130.723,256,130.723z" style="fill: rgb(252, 186, 25);"/>
  <path d="M92.596,212.426c4.512,0,8.17-3.658,8.17-8.17c0-85.597,69.637-155.234,155.234-155.234s155.234,69.637,155.234,155.234 v41.396c0,4.506-3.665,8.17-8.17,8.17s-8.17-3.665-8.17-8.17v-41.396c0-76.586-62.307-138.894-138.894-138.894 s-138.894,62.307-138.894,138.894v87.149c0,85.597,69.637,155.234,155.234,155.234s155.234-69.637,155.234-155.234 c0-4.512-3.657-8.17-8.17-8.17c-4.513,0-8.17,3.658-8.17,8.17c0,76.587-62.307,138.894-138.894,138.894 s-138.894-62.307-138.894-138.894v-87.149c0-67.576,54.977-122.553,122.553-122.553c67.575,0,122.553,54.977,122.553,122.553v41.396 c0,13.516,10.996,24.511,24.511,24.511s24.511-10.995,24.511-24.511v-41.396c0-94.607-76.968-171.574-171.574-171.574 S84.426,109.649,84.426,204.255C84.426,208.767,88.084,212.426,92.596,212.426z" style="fill: rgb(252, 186, 25);"/>
  <path d="M272.34,462.979c-94.607,0-171.574-76.968-171.574-171.574v-54.468c0-4.512-3.658-8.17-8.17-8.17 c-4.512,0-8.17,3.658-8.17,8.17v54.468c0,103.617,84.298,187.915,187.915,187.915c4.513,0,8.17-3.658,8.17-8.17 C280.511,466.637,276.854,462.979,272.34,462.979z" style="fill: rgb(252, 186, 25);"/>
  <path d="M272.34,413.957c67.576,0,122.553-54.977,122.553-122.553c0-4.512-3.657-8.17-8.17-8.17c-4.513,0-8.17,3.658-8.17,8.17 c0,58.566-47.647,106.213-106.213,106.213S166.128,349.97,166.128,291.404c0-4.512-3.658-8.17-8.17-8.17s-8.17,3.658-8.17,8.17 C149.787,358.981,204.764,413.957,272.34,413.957z" style="fill: rgb(252, 186, 25);"/>
</svg>