<?xml version="1.0" encoding="utf-8"?>
<svg viewBox="0 0 47.411 53.149" xmlns="http://www.w3.org/2000/svg">
  <path d="M 24.386 20.743 C 23.886 20.743 23.48 21.148 23.48 21.649 L 23.48 31.312 C 23.48 32.811 24.7 34.03 26.198 34.03 C 27.697 34.03 28.916 32.811 28.916 31.312 L 28.916 21.649 C 28.916 19.151 26.884 17.119 24.386 17.119 C 21.889 17.119 19.857 19.151 19.857 21.649 L 19.857 31.312 C 19.857 34.809 22.702 37.654 26.198 37.654 C 29.695 37.654 32.54 34.809 32.54 31.312 L 32.54 25.272 C 32.54 24.772 32.134 24.367 31.634 24.367 C 31.134 24.367 30.728 24.772 30.728 25.272 L 30.728 31.312 C 30.728 33.81 28.696 35.842 26.198 35.842 C 23.701 35.842 21.669 33.81 21.669 31.312 L 21.669 21.649 C 21.669 20.15 22.888 18.931 24.386 18.931 C 25.885 18.931 27.104 20.15 27.104 21.649 L 27.104 31.312 C 27.104 31.812 26.698 32.218 26.198 32.218 C 25.699 32.218 25.292 31.812 25.292 31.312 L 25.292 21.649 C 25.292 21.148 24.887 20.743 24.386 20.743 Z" style="fill: rgb(252, 186, 25);"/>
  <path d="M 24.386 13.495 C 19.89 13.495 16.233 17.153 16.233 21.649 L 16.233 31.312 C 16.233 36.807 20.703 41.277 26.198 41.277 C 31.693 41.277 36.164 36.807 36.164 31.312 L 36.164 21.649 C 36.164 15.155 30.88 9.871 24.386 9.871 C 17.892 9.871 12.609 15.155 12.609 21.649 L 12.613 27.992 C 12.613 28.492 13.018 28.897 13.519 28.897 C 14.019 28.897 14.425 28.491 14.425 27.991 L 14.421 21.649 C 14.421 16.154 18.891 11.683 24.386 11.683 C 29.881 11.683 34.352 16.154 34.352 21.649 L 34.352 31.312 C 34.352 35.808 30.694 39.466 26.198 39.466 C 21.702 39.466 18.045 35.808 18.045 31.312 L 18.045 21.649 C 18.045 18.152 20.889 15.307 24.386 15.307 C 27.883 15.307 30.728 18.152 30.728 21.649 C 30.728 22.149 31.133 22.555 31.634 22.555 C 32.134 22.555 32.54 22.149 32.54 21.649 C 32.54 17.153 28.882 13.495 24.386 13.495 Z" style="fill: rgb(252, 186, 25);"/>
  <path d="M 6.267 22.555 C 6.768 22.555 7.173 22.149 7.173 21.649 C 7.173 12.157 14.895 4.436 24.386 4.436 C 33.878 4.436 41.599 12.157 41.599 21.649 L 41.599 26.239 C 41.599 26.739 41.193 27.145 40.693 27.145 C 40.194 27.145 39.787 26.738 39.787 26.239 L 39.787 21.649 C 39.787 13.157 32.879 6.248 24.386 6.248 C 15.894 6.248 8.985 13.156 8.985 21.649 L 8.985 31.312 C 8.985 40.804 16.707 48.525 26.198 48.525 C 35.69 48.525 43.411 40.804 43.411 31.312 C 43.411 30.812 43.006 30.406 42.505 30.406 C 42.005 30.406 41.599 30.812 41.599 31.312 C 41.599 39.804 34.69 46.713 26.198 46.713 C 17.706 46.713 10.797 39.804 10.797 31.312 L 10.797 21.649 C 10.797 14.156 16.893 8.06 24.386 8.06 C 31.879 8.06 37.975 14.156 37.975 21.649 L 37.975 26.239 C 37.975 27.738 39.195 28.957 40.693 28.957 C 42.192 28.957 43.411 27.738 43.411 26.239 L 43.411 21.649 C 43.411 11.158 34.877 2.624 24.386 2.624 C 13.896 2.624 5.361 11.158 5.361 21.649 C 5.361 22.149 5.767 22.555 6.267 22.555 Z" style="fill: rgb(252, 186, 25);"/>
  <path d="M 26.198 50.337 C 15.708 50.337 7.173 41.802 7.173 31.312 L 7.173 25.273 C 7.173 24.772 6.768 24.367 6.267 24.367 C 5.767 24.367 5.361 24.772 5.361 25.273 L 5.361 31.312 C 5.361 42.802 14.709 52.149 26.198 52.149 C 26.699 52.149 27.104 51.743 27.104 51.243 C 27.104 50.743 26.699 50.337 26.198 50.337 Z" style="fill: rgb(252, 186, 25);"/>
  <path d="M 26.198 44.901 C 33.691 44.901 39.787 38.805 39.787 31.312 C 39.787 30.812 39.382 30.406 38.881 30.406 C 38.381 30.406 37.976 30.812 37.976 31.312 C 37.976 37.806 32.692 43.089 26.198 43.089 C 19.704 43.089 14.421 37.806 14.421 31.312 C 14.421 30.812 14.015 30.406 13.515 30.406 C 13.015 30.406 12.609 30.812 12.609 31.312 C 12.609 38.805 18.705 44.901 26.198 44.901 Z" style="fill: rgb(252, 186, 25);"/>
</svg>