<?xml version="1.0" encoding="UTF-8"?>
<svg xmlns="http://www.w3.org/2000/svg" xmlns:xlink="http://www.w3.org/1999/xlink" viewBox="0 0 64.83 78.68">
  <defs>
    <style>
      .cls-1 {
        fill: url(#linear-gradient);
      }

      .cls-2 {
        fill: url(#linear-gradient-8);
      }

      .cls-2, .cls-3, .cls-4, .cls-5, .cls-6, .cls-7, .cls-8, .cls-9, .cls-10, .cls-11, .cls-12, .cls-13, .cls-14, .cls-15, .cls-16, .cls-17, .cls-18, .cls-19 {
        mix-blend-mode: screen;
      }

      .cls-3 {
        fill: url(#linear-gradient-9);
      }

      .cls-4 {
        fill: url(#linear-gradient-3);
      }

      .cls-5 {
        fill: url(#linear-gradient-2);
      }

      .cls-6 {
        fill: url(#linear-gradient-4);
      }

      .cls-7 {
        fill: url(#linear-gradient-6);
      }

      .cls-8 {
        fill: url(#linear-gradient-7);
      }

      .cls-9 {
        fill: url(#linear-gradient-5);
      }

      .cls-10 {
        fill: url(#linear-gradient-12);
      }

      .cls-11 {
        fill: url(#linear-gradient-10);
      }

      .cls-12 {
        fill: url(#linear-gradient-11);
      }

      .cls-13 {
        fill: url(#linear-gradient-13);
      }

      .cls-14 {
        fill: url(#linear-gradient-19);
      }

      .cls-15 {
        fill: url(#linear-gradient-17);
      }

      .cls-16 {
        fill: url(#linear-gradient-16);
      }

      .cls-17 {
        fill: url(#linear-gradient-15);
      }

      .cls-18 {
        fill: url(#linear-gradient-14);
      }

      .cls-19 {
        fill: url(#linear-gradient-18);
      }

      .cls-20 {
        isolation: isolate;
      }
    </style>
    <linearGradient id="linear-gradient" x1="0" y1="39.34" x2="64.83" y2="39.34" gradientUnits="userSpaceOnUse">
      <stop offset="0" stop-color="#1c75bc"/>
      <stop offset="1" stop-color="#262262"/>
    </linearGradient>
    <linearGradient id="linear-gradient-2" x1="23.05" y1="63.77" x2="82.27" y2="63.77" gradientUnits="userSpaceOnUse">
      <stop offset="0" stop-color="#1c75bc"/>
      <stop offset="1" stop-color="#262262"/>
      <stop offset="1" stop-color="#231f20"/>
    </linearGradient>
    <linearGradient id="linear-gradient-3" x1="23.05" y1="61.48" x2="82.27" y2="61.48" xlink:href="#linear-gradient-2"/>
    <linearGradient id="linear-gradient-4" x1="23.05" y1="59.18" x2="82.27" y2="59.18" xlink:href="#linear-gradient-2"/>
    <linearGradient id="linear-gradient-5" y1="56.47" x2="82.27" y2="56.47" xlink:href="#linear-gradient-2"/>
    <linearGradient id="linear-gradient-6" x1="23.05" y1="55.85" x2="82.27" y2="55.85" xlink:href="#linear-gradient-2"/>
    <linearGradient id="linear-gradient-7" x1="23.05" y1="39.06" x2="82.27" y2="39.06" xlink:href="#linear-gradient-2"/>
    <linearGradient id="linear-gradient-8" x1="23.05" y1="64.38" x2="82.27" y2="64.38" xlink:href="#linear-gradient-2"/>
    <linearGradient id="linear-gradient-9" x1="23.05" y1="28.85" x2="82.27" y2="28.85" xlink:href="#linear-gradient-2"/>
    <linearGradient id="linear-gradient-10" x1="23.05" y1="37.43" x2="82.27" y2="37.43" xlink:href="#linear-gradient-2"/>
    <linearGradient id="linear-gradient-11" x1="23.05" y1="53.6" x2="82.27" y2="53.6" xlink:href="#linear-gradient-2"/>
    <linearGradient id="linear-gradient-12" x1="23.05" y1="70.64" x2="82.27" y2="70.64" xlink:href="#linear-gradient-2"/>
    <linearGradient id="linear-gradient-13" x1="23.05" y1="40.25" x2="82.27" y2="40.25" gradientUnits="userSpaceOnUse">
      <stop offset="0" stop-color="#1c75bc"/>
      <stop offset=".2" stop-color="#1c71b7"/>
      <stop offset=".42" stop-color="#1d65ab"/>
      <stop offset=".63" stop-color="#205195"/>
      <stop offset=".86" stop-color="#233678"/>
      <stop offset="1" stop-color="#262262"/>
      <stop offset="1" stop-color="#231f20"/>
    </linearGradient>
    <linearGradient id="linear-gradient-14" x1="23.05" y1="22.24" x2="82.27" y2="22.24" xlink:href="#linear-gradient-2"/>
    <linearGradient id="linear-gradient-15" x1="23.05" y1="27.11" x2="82.27" y2="27.11" xlink:href="#linear-gradient-2"/>
    <linearGradient id="linear-gradient-16" x1="23.05" y1="16.41" x2="82.27" y2="16.41" xlink:href="#linear-gradient-2"/>
    <linearGradient id="linear-gradient-17" x1="23.05" y1="20.46" x2="82.27" y2="20.46" xlink:href="#linear-gradient-2"/>
    <linearGradient id="linear-gradient-18" x1="23.05" y1="11.23" x2="82.27" y2="11.23" xlink:href="#linear-gradient-2"/>
    <linearGradient id="linear-gradient-19" x1="23.05" y1="2.82" x2="82.27" y2="2.82" xlink:href="#linear-gradient-2"/>
  </defs>
  <g class="cls-20">
    <g id="Layer_1" data-name="Layer 1">
      <path class="cls-1" d="m57.7,33.35v-7.92s0-.06,0-.08c0-.02,0-.04,0-.06v-.16c0-.28-.04-.56-.06-.84-.02-.55-.04-1.1-.1-1.64-.03-.26-.08-.51-.12-.77-.08-.59-.16-1.18-.29-1.76-.03-.16-.08-.31-.12-.47-.16-.67-.32-1.33-.53-1.98,0-.03-.02-.06-.03-.09C53.41,8.18,45.08,1.16,35.01.13c-.84-.09-1.69-.13-2.56-.13,0,0,0,0,0,0s0,0,0,0c-.86,0-1.72.04-2.56.13C19.81,1.16,11.47,8.18,8.44,17.59c0,.03-.02.05-.03.08-.21.65-.38,1.32-.53,1.99-.04.16-.08.3-.12.46-.12.58-.2,1.17-.29,1.76-.04.26-.09.51-.12.77-.06.54-.08,1.09-.1,1.64-.01.28-.05.56-.05.84v.16s0,.04,0,.06c0,.03,0,.06,0,.08v7.91C3.15,33.83,0,37.23,0,41.41v29.11c0,4.51,3.66,8.17,8.17,8.17h48.49c4.51,0,8.17-3.66,8.17-8.17v-29.11c0-4.16-3.12-7.55-7.13-8.06Zm-25.25-24.37c9,0,16.32,7.38,16.32,16.45v7.81H16.13v-7.81c0-9.07,7.32-16.45,16.32-16.45Z"/>
      <g>
        <path class="cls-5" d="m33.81,60.38c1.18-1.97,1.38-4.35.55-6.55-1.17-3.08-4.25-4.99-7.63-4.72-1.23.09-2.35.46-3.33,1.11-.73.48-1.33,1.12-1.85,1.94l-.82,1.31c-1.57,2.35-5.89,7.94-11.94,9.04-4.64.09-8.41,3.94-8.41,8.58,0,.98.17,1.92.48,2.8,1.33,2.71,4.09,4.58,7.31,4.58h6.87c8.15-2.97,15.88-10.94,18.78-18.09Zm-24.78,17.76c-3.93,0-7.13-3.17-7.13-7.05s3.1-6.98,7.03-7.06c6.74-1.21,11.38-7.19,13.07-9.72l.84-1.32c.4-.64.86-1.12,1.4-1.48.76-.5,1.63-.79,2.6-.86.17-.01.33-.02.5-.02,2.51,0,4.72,1.46,5.59,3.76.67,1.78.52,3.63-.49,5.32-3.46,8.54-14.21,18.24-23.41,18.44Z"/>
        <path class="cls-4" d="m37.95,62.38c1.72-3.1,1.98-6.81.7-10.18-1.89-5-6.81-8.08-12.25-7.67-2.02.15-3.89.78-5.54,1.87-1.26.84-2.33,1.96-3.19,3.32l-.76,1.2c-.94,1.41-4.36,6.08-8.68,7.02-3.19.18-6.05,1.49-8.23,3.52v2.23c2.01-2.43,5-4.04,8.43-4.24,5.01-1.07,8.73-6.15,9.77-7.7l.77-1.22c.74-1.18,1.66-2.14,2.74-2.86,1.42-.94,3.04-1.49,4.8-1.62.28-.02.57-.03.85-.03,4.41,0,8.31,2.62,9.86,6.72,1.12,2.95.89,6.19-.65,8.97-2.59,6.16-8.18,12.64-14.73,16.75h2.84c5.97-4.29,10.86-10.35,13.27-16.09Z"/>
        <path class="cls-6" d="m42.09,64.37c2.26-4.23,2.57-9.25.85-13.79-2.63-6.93-9.39-11.21-16.88-10.62-2.82.21-5.42,1.09-7.74,2.62-1.8,1.2-3.33,2.78-4.53,4.69l-.69,1.1c-1.31,1.96-3.59,4.45-5.59,5.02-2.73.22-5.27,1.08-7.51,2.41v1.83c2.25-1.51,4.9-2.5,7.78-2.74,2.54-.7,5.07-3.39,6.61-5.69l.7-1.11c1.09-1.73,2.46-3.15,4.09-4.23,2.09-1.39,4.45-2.18,7.01-2.37.41-.03.82-.05,1.23-.05,6.29,0,11.86,3.78,14.1,9.69,1.56,4.12,1.28,8.69-.8,12.59-2.2,5.12-6.24,10.45-11.24,14.76h2.27c4.59-4.24,8.27-9.27,10.34-14.1Z"/>
        <path class="cls-9" d="m48.3,48.58c-3.49-9.18-12.45-14.82-22.33-14.04-3.76.28-7.23,1.45-10.33,3.5-2.44,1.62-4.49,3.73-6.11,6.29l-.7,1.11c-1.68,3.22-5.56,5.05-6.83,5.65-.11.05-.21.1-.29.14-.59.07-1.16.16-1.72.27v1.55c.65-.13,1.33-.24,2.03-.32l.28-.09c.07-.04.19-.09.35-.17,1.39-.66,5.61-2.65,7.5-6.27l.67-1.06c1.5-2.37,3.4-4.34,5.66-5.83,2.88-1.9,6.11-2.99,9.6-3.25.57-.04,1.13-.07,1.69-.07,8.51,0,16.05,5.11,19.09,13.12,2.08,5.47,1.73,11.56-.98,16.75-1.88,4.3-4.85,8.66-8.51,12.6h2.07c3.35-3.78,6.05-7.89,7.83-11.94,2.88-5.53,3.26-12.07,1.03-17.95Z"/>
        <path class="cls-7" d="m45.05,33.24h-2.74c4.76,2.9,8.57,7.32,10.67,12.83,2.65,6.94,2.2,14.67-1.24,21.24-1.65,3.75-3.94,7.53-6.73,11.15h1.91c2.54-3.42,4.65-6.98,6.2-10.49,3.62-6.91,4.09-15.09,1.29-22.44-1.94-5.07-5.23-9.26-9.36-12.29Z"/>
        <path class="cls-8" d="m6.18,42.37l.84-1.33c1.91-3.01,4.34-5.5,7.22-7.4.61-.4,1.24-.77,1.88-1.11v-1.73c-.93.47-1.84.98-2.72,1.56-3.06,2.02-5.64,4.67-7.67,7.86l-.78,1.25c-1.81,2.16-3.49,3.42-4.94,4.17v1.7c1.77-.79,3.88-2.23,6.18-4.97Z"/>
        <path class="cls-2" d="m27.08,53.68c-.6.04-.94.23-1.15.37-.06.04-.25.17-.5.56l-.83,1.31c-1.92,2.87-7.22,9.7-15.07,11.11l-.66.07c-2.16.04-3.92,1.83-3.92,3.99s1.81,3.97,4.05,4c7.91-.21,17.56-9.06,20.57-16.48l.29-.59c.47-.78.53-1.66.19-2.56-.44-1.17-1.56-1.87-2.99-1.77Zm1.46,3.6l-.34.69c-2.86,7.04-11.87,15.38-19.19,15.58-1.39-.02-2.51-1.12-2.51-2.47s1.08-2.44,2.48-2.47l.78-.08c8.48-1.52,14.1-8.74,16.14-11.79l.84-1.33c.04-.07.07-.11.07-.11,0,0,0,0,0,0,.05-.03.15-.09.41-.11h.15c.61,0,1.11.3,1.3.79.18.46.15.85-.1,1.28Z"/>
        <path class="cls-3" d="m11.9,28.91c1.36-.89,2.77-1.65,4.22-2.31v-1.38c0-.1.01-.2.02-.3-1.76.75-3.45,1.65-5.08,2.71-1.38.91-2.66,1.96-3.87,3.08v2.08c1.43-1.46,3-2.76,4.71-3.88Z"/>
        <path class="cls-11" d="m3.17,37.85c1.01-1.59,2.15-3.03,3.4-4.37-1.14.23-2.2.69-3.12,1.34-.54.72-1.08,1.44-1.57,2.22l-.66,1.05c-.28.32-.54.59-.8.86-.25.78-.41,1.59-.41,2.45.75-.6,1.57-1.38,2.44-2.4l.72-1.14Z"/>
        <path class="cls-12" d="m58.33,43.83c3.16,8.28,2.65,17.5-1.42,25.35-1.37,3.09-3.14,6.22-5.23,9.29h1.85c1.89-2.86,3.49-5.76,4.76-8.63,4.25-8.19,4.78-17.87,1.47-26.56-2.28-5.98-6.15-10.95-11-14.55v1.93c4.2,3.36,7.54,7.85,9.58,13.17Z"/>
        <path class="cls-10" d="m61.74,71.49c-1.01,2.27-2.23,4.55-3.61,6.83.8-.15,1.54-.42,2.24-.78,1.03-1.8,1.95-3.6,2.75-5.38.65-1.26,1.21-2.55,1.71-3.87v-5.33c-.66,2.94-1.69,5.81-3.09,8.54Z"/>
        <path class="cls-13" d="m61.52,34.89c-.8-.59-1.71-1.03-2.7-1.3,1.82,2.53,3.36,5.3,4.51,8.33.62,1.63,1.11,3.3,1.49,4.98v-5.34c-.02-.06-.04-.12-.06-.18-.88-2.3-1.98-4.45-3.24-6.48Z"/>
        <path class="cls-18" d="m7.19,24.91v.16s0,.04,0,.06c0,.03,0,.06,0,.08v.53c.58-.44,1.15-.9,1.76-1.3,2.48-1.63,5.1-2.92,7.85-3.88.18-.62.39-1.23.65-1.82-3.28,1.03-6.4,2.5-9.33,4.42-.29.19-.56.42-.85.63,0,.09-.01.19-.02.28-.01.28-.05.56-.05.84Z"/>
        <path class="cls-17" d="m57.69,32.06v-2.34c-2.67-3.02-5.78-5.56-9.23-7.57.12.63.19,1.28.24,1.93,3.4,2.13,6.45,4.81,8.99,7.98Z"/>
        <path class="cls-16" d="m7.78,19.78c3.72-2.25,7.71-3.86,11.91-4.81.55-.69,1.15-1.32,1.8-1.92-4.64.8-9.04,2.35-13.15,4.63-.18.58-.33,1.17-.47,1.76-.03.11-.06.22-.09.34Z"/>
        <path class="cls-15" d="m57.69,25.29v-.08s0-.06,0-.08c0-.02,0-.04,0-.06v-.16c0-.28-.04-.56-.06-.84-.01-.33-.04-.66-.06-.99-3.51-3.12-7.53-5.63-11.89-7.44.51.72.97,1.48,1.36,2.28,3.92,1.87,7.51,4.36,10.65,7.37Z"/>
        <path class="cls-19" d="m54.67,13.42c-5.77-3.35-12.37-5.62-19.5-6.51-7.63-.96-15.05-.22-21.83,1.94-.6.7-1.17,1.43-1.7,2.19,5.25-1.97,10.96-3.02,16.89-3.02,2.12,0,4.28.13,6.44.4,7.74.97,14.84,3.6,20.88,7.52-.35-.87-.75-1.71-1.19-2.53Z"/>
        <path class="cls-14" d="m28.66,1.93c2.34,0,4.7.14,7.08.44,4.18.52,8.17,1.51,11.97,2.85-1.65-1.27-3.46-2.35-5.39-3.18-2.09-.5-4.21-.91-6.39-1.18-2.73-.34-5.45-.45-8.13-.41-2.09.39-4.09,1.06-5.96,1.94,2.25-.28,4.52-.45,6.83-.45Z"/>
      </g>
    </g>
  </g>
</svg>